<?xml version="1.0" encoding="utf-8"?>
<!-- Generator: Adobe Illustrator 19.1.0, SVG Export Plug-In . SVG Version: 6.00 Build 0)  -->
<svg version="1.1" id="Layer_1" xmlns="http://www.w3.org/2000/svg" xmlns:xlink="http://www.w3.org/1999/xlink" x="0px" y="0px"
	 viewBox="0 0 800 800" style="enable-background:new 0 0 800 800;" xml:space="preserve">
<style type="text/css">
	.st0{fill:#FFA213;}
	.st1{fill:#F6C99F;}
	.st2{fill:#C7CFDD;}
	.st3{fill:#ED7614;}
	.st4{fill:#3D3D3D;}
	.st5{fill:#B4B4B4;}
	.st6{fill:#272727;}
	.st7{fill:#0069AA;}
	.st8{fill:#858585;}
	.st9{fill:#5D5D5D;}
	.st10{fill:#F4555D;}
	.st11{fill:#333333;}
	.st12{fill:#1A1A1A;}
	.st13{fill:#666666;}
	.st14{fill:#B3B3B3;}
	.st15{fill:#F2F2F2;}
	.st16{fill:#999999;}
	.st17{fill:#4D4D4D;}
	.st18{fill:#E6E6E6;}
	.st19{fill:#CCCCCC;}
	.st20{fill:#808080;}
</style>
<g>
	<g id="XMLID_1_">
		<g>
			<rect x="750" y="500" width="50" height="50"/>
			<rect x="700" y="600" width="50" height="50"/>
			<rect x="700" y="550" width="50" height="50"/>
			<rect x="700" y="500" class="st0" width="50" height="50"/>
			<rect x="700" y="450" width="50" height="50"/>
			<rect x="700" y="400" width="50" height="50"/>
			<rect x="700" y="350" width="50" height="50"/>
			<rect x="700" y="300" width="50" height="50"/>
			<rect x="700" y="250" width="50" height="50"/>
			<rect x="700" y="200" width="50" height="50"/>
			<rect x="650" y="650" width="50" height="50"/>
			<rect x="650" y="600" class="st0" width="50" height="50"/>
			<rect x="650" y="550" class="st1" width="50" height="50"/>
			<rect x="650" y="500" class="st0" width="50" height="50"/>
			<rect x="650" y="450" class="st2" width="50" height="50"/>
			<rect x="650" y="400" class="st2" width="50" height="50"/>
			<rect x="650" y="350" class="st2" width="50" height="50"/>
			<rect x="650" y="300" class="st2" width="50" height="50"/>
			<rect x="650" y="250" class="st2" width="50" height="50"/>
			<rect x="650" y="200" class="st2" width="50" height="50"/>
			<rect x="650" y="150" width="50" height="50"/>
			<rect x="600" y="650" width="50" height="50"/>
			<rect x="600" y="600" class="st3" width="50" height="50"/>
			<rect x="600" y="550" width="50" height="50"/>
			<rect x="600" y="500" class="st0" width="50" height="50"/>
			<rect x="600" y="450" width="50" height="50"/>
			<rect x="600" y="400" width="50" height="50"/>
			<rect x="600" y="350" width="50" height="50"/>
			<rect x="600" y="300" width="50" height="50"/>
			<rect x="600" y="250" width="50" height="50"/>
			<rect x="600" y="200" width="50" height="50"/>
			<rect x="550" y="750" width="50" height="50"/>
			<rect x="550" y="600" width="50" height="50"/>
			<rect x="550" y="550" class="st3" width="50" height="50"/>
			<rect x="550" y="500" width="50" height="50"/>
			<rect x="550" y="450" width="50" height="50"/>
			<rect x="550" y="200" width="50" height="50"/>
			<rect x="550" y="150" width="50" height="50"/>
			<rect x="550" y="100" width="50" height="50"/>
			<rect x="550" y="50" width="50" height="50"/>
			<rect x="500" y="750" class="st4" width="50" height="50"/>
			<rect x="500" y="700" width="50" height="50"/>
			<rect x="500" y="650" width="50" height="50"/>
			<rect x="500" y="600" class="st4" width="50" height="50"/>
			<rect x="500" y="550" width="50" height="50"/>
			<rect x="500" y="500" width="50" height="50"/>
			<rect x="500" y="450" width="50" height="50"/>
			<rect x="500" y="400" width="50" height="50"/>
			<rect x="500" y="350" width="50" height="50"/>
			<rect x="500" y="300" width="50" height="50"/>
			<rect x="500" y="250" width="50" height="50"/>
			<rect x="500" y="200" width="50" height="50"/>
			<rect x="500" y="150" class="st5" width="50" height="50"/>
			<rect x="500" y="100" class="st6" width="50" height="50"/>
			<rect x="500" y="50" class="st6" width="50" height="50"/>
			<rect x="500" width="50" height="50"/>
			<rect x="450" y="750" class="st4" width="50" height="50"/>
			<rect x="450" y="700" class="st3" width="50" height="50"/>
			<rect x="450" y="650" class="st5" width="50" height="50"/>
			<rect x="450" y="600" width="50" height="50"/>
			<rect x="450" y="550" class="st5" width="50" height="50"/>
			<rect x="450" y="500" class="st5" width="50" height="50"/>
			<rect x="450" y="450" width="50" height="50"/>
			<rect x="450" y="400" class="st1" width="50" height="50"/>
			<rect x="450" y="350" class="st1" width="50" height="50"/>
			<rect x="450" y="300" class="st7" width="50" height="50"/>
			<rect x="450" y="250" class="st1" width="50" height="50"/>
			<rect x="450" y="200" width="50" height="50"/>
			<rect x="450" y="150" class="st5" width="50" height="50"/>
			<rect x="450" y="100" class="st5" width="50" height="50"/>
			<rect x="450" y="50" class="st5" width="50" height="50"/>
			<rect x="450" width="50" height="50"/>
			<rect x="400" y="750" width="50" height="50"/>
			<rect x="400" y="700" width="50" height="50"/>
			<rect x="400" y="650" class="st8" width="50" height="50"/>
			<rect x="400" y="600" class="st8" width="50" height="50"/>
			<rect x="400" y="550" width="50" height="50"/>
			<rect x="400" y="500" class="st8" width="50" height="50"/>
			<rect x="400" y="450" class="st9" width="50" height="50"/>
			<rect x="400" y="400" class="st10" width="50" height="50"/>
			<rect x="400" y="350" class="st1" width="50" height="50"/>
			<rect x="400" y="300" class="st1" width="50" height="50"/>
			<rect x="400" y="250" class="st1" width="50" height="50"/>
			<rect x="400" y="200" width="50" height="50"/>
			<rect x="400" y="150" class="st5" width="50" height="50"/>
			<rect x="400" y="100" class="st6" width="50" height="50"/>
			<rect x="400" y="50" class="st6" width="50" height="50"/>
			<rect x="400" width="50" height="50"/>
			<rect x="350" y="750" width="50" height="50"/>
			<rect x="350" y="700" width="50" height="50"/>
			<rect x="350" y="650" class="st8" width="50" height="50"/>
			<rect x="350" y="600" width="50" height="50"/>
			<rect x="350" y="550" class="st5" width="50" height="50"/>
			<rect x="350" y="500" class="st5" width="50" height="50"/>
			<rect x="350" y="450" class="st9" width="50" height="50"/>
			<rect x="350" y="400" class="st10" width="50" height="50"/>
			<rect x="350" y="350" class="st1" width="50" height="50"/>
			<rect x="350" y="300" class="st1" width="50" height="50"/>
			<rect x="350" y="250" class="st1" width="50" height="50"/>
			<rect x="350" y="200" width="50" height="50"/>
			<rect x="350" y="150" class="st8" width="50" height="50"/>
			<rect x="350" y="100" class="st8" width="50" height="50"/>
			<rect x="350" y="50" class="st5" width="50" height="50"/>
			<rect x="350" width="50" height="50"/>
			<rect x="300" y="750" class="st4" width="50" height="50"/>
			<rect x="300" y="700" class="st3" width="50" height="50"/>
			<rect x="300" y="650" class="st9" width="50" height="50"/>
			<rect x="300" y="600" width="50" height="50"/>
			<rect x="300" y="550" class="st8" width="50" height="50"/>
			<rect x="300" y="500" class="st5" width="50" height="50"/>
			<rect x="300" y="450" class="st9" width="50" height="50"/>
			<rect x="300" y="400" class="st1" width="50" height="50"/>
			<rect x="300" y="350" class="st1" width="50" height="50"/>
			<rect x="300" y="300" class="st7" width="50" height="50"/>
			<rect x="300" y="250" class="st1" width="50" height="50"/>
			<rect x="300" y="200" width="50" height="50"/>
			<rect x="300" y="150" class="st8" width="50" height="50"/>
			<rect x="300" y="100" class="st6" width="50" height="50"/>
			<rect x="300" y="50" class="st6" width="50" height="50"/>
			<rect x="300" width="50" height="50"/>
			<rect x="250" y="750" class="st4" width="50" height="50"/>
			<rect x="250" y="700" class="st3" width="50" height="50"/>
			<rect x="250" y="650" class="st4" width="50" height="50"/>
			<rect x="250" y="600" width="50" height="50"/>
			<rect x="250" y="550" class="st4" width="50" height="50"/>
			<rect x="250" y="500" class="st8" width="50" height="50"/>
			<rect x="250" y="450" width="50" height="50"/>
			<rect x="250" y="400" class="st1" width="50" height="50"/>
			<rect x="250" y="350" class="st1" width="50" height="50"/>
			<rect x="250" y="300" class="st1" width="50" height="50"/>
			<rect x="250" y="250" class="st1" width="50" height="50"/>
			<rect x="250" y="200" width="50" height="50"/>
			<rect x="250" y="150" class="st9" width="50" height="50"/>
			<rect x="250" y="100" class="st8" width="50" height="50"/>
			<rect x="250" y="50" class="st8" width="50" height="50"/>
			<rect x="250" width="50" height="50"/>
			<rect x="200" y="750" width="50" height="50"/>
			<rect x="200" y="700" width="50" height="50"/>
			<rect x="200" y="650" width="50" height="50"/>
			<rect x="200" y="600" width="50" height="50"/>
			<rect x="200" y="550" width="50" height="50"/>
			<rect x="200" y="500" width="50" height="50"/>
			<rect x="200" y="450" width="50" height="50"/>
			<rect x="200" y="400" class="st9" width="50" height="50"/>
			<rect x="200" y="350" class="st9" width="50" height="50"/>
			<rect x="200" y="300" class="st8" width="50" height="50"/>
			<rect x="200" y="250" class="st8" width="50" height="50"/>
			<rect x="200" y="200" class="st9" width="50" height="50"/>
			<rect x="200" y="150" width="50" height="50"/>
			<rect x="200" y="100" class="st9" width="50" height="50"/>
			<rect x="200" y="50" width="50" height="50"/>
			<rect x="150" y="700" width="50" height="50"/>
			<rect x="150" y="650" width="50" height="50"/>
			<rect x="150" y="600" width="50" height="50"/>
			<rect x="150" y="550" width="50" height="50"/>
			<rect x="150" y="500" class="st5" width="50" height="50"/>
			<rect x="150" y="450" width="50" height="50"/>
			<rect x="150" y="400" width="50" height="50"/>
			<rect x="150" y="350" class="st8" width="50" height="50"/>
			<rect x="150" y="300" class="st9" width="50" height="50"/>
			<rect x="150" y="250" class="st9" width="50" height="50"/>
			<rect x="150" y="200" class="st8" width="50" height="50"/>
			<rect x="150" y="150" width="50" height="50"/>
			<rect x="150" y="100" width="50" height="50"/>
			<rect x="150" y="50" width="50" height="50"/>
			<rect x="150" width="50" height="50"/>
			<rect x="100" y="750" width="50" height="50"/>
			<rect x="100" y="700" class="st0" width="50" height="50"/>
			<rect x="100" y="650" class="st0" width="50" height="50"/>
			<rect x="100" y="600" width="50" height="50"/>
			<rect x="100" y="550" class="st3" width="50" height="50"/>
			<rect x="100" y="500" class="st8" width="50" height="50"/>
			<rect x="100" y="450" width="50" height="50"/>
			<rect x="100" y="350" width="50" height="50"/>
			<rect x="100" y="300" width="50" height="50"/>
			<rect x="100" y="250" width="50" height="50"/>
			<rect x="100" y="200" width="50" height="50"/>
			<rect x="100" y="150" width="50" height="50"/>
			<rect x="100" y="100" width="50" height="50"/>
			<rect x="100" y="50" class="st0" width="50" height="50"/>
			<rect x="100" width="50" height="50"/>
			<rect x="50" y="750" width="50" height="50"/>
			<rect x="50" y="700" class="st3" width="50" height="50"/>
			<rect x="50" y="650" class="st3" width="50" height="50"/>
			<rect x="50" y="600" width="50" height="50"/>
			<rect x="50" y="550" width="50" height="50"/>
			<rect x="50" y="500" class="st4" width="50" height="50"/>
			<rect x="50" y="450" width="50" height="50"/>
			<rect x="50" y="150" width="50" height="50"/>
			<rect x="50" y="100" class="st3" width="50" height="50"/>
			<rect x="50" y="50" class="st3" width="50" height="50"/>
			<rect x="50" width="50" height="50"/>
			<rect y="700" width="50" height="50"/>
			<rect y="650" width="50" height="50"/>
			<rect y="600" width="50" height="50"/>
			<rect y="500" width="50" height="50"/>
			<rect y="200" width="50" height="50"/>
			<rect y="150" width="50" height="50"/>
			<rect y="100" width="50" height="50"/>
			<rect y="50" width="50" height="50"/>
		</g>
	</g>
</g>
</svg>
